<svg width="88" height="76" viewBox="0 0 88 76" fill="none" xmlns="http://www.w3.org/2000/svg">
<path fill-rule="evenodd" clip-rule="evenodd" d="M30.1181 0.0278311C29.9643 0.0401567 29.8137 0.078314 29.6726 0.14062L0.831529 12.6663C0.609017 12.7625 0.415906 12.9161 0.271772 13.1111C0.127638 13.306 0.0376058 13.5354 0.0108031 13.7764C-0.0159995 14.0173 0.0213802 14.2611 0.119153 14.483C0.216925 14.7048 0.371614 14.8968 0.567538 15.0395L12.9421 24.0372L0.567538 33.0321C0.370931 33.1748 0.21562 33.3672 0.117407 33.5894C0.0191943 33.8115 -0.0184136 34.0556 0.00841012 34.297C0.0352338 34.5384 0.125532 34.7685 0.270115 34.9636C0.414699 35.1588 0.608407 35.3121 0.831529 35.4081L13.7534 41.018V61.172C13.7521 61.2784 13.7632 61.3845 13.7864 61.4883C13.7139 61.8058 13.7564 62.1388 13.9065 62.4278C14.0566 62.7169 14.3044 62.9432 14.6058 63.0666L43.4331 75.3727C43.4888 75.3938 43.5457 75.4111 43.6036 75.4248C43.6165 75.425 43.6293 75.425 43.6421 75.4248C43.6603 75.4344 43.6786 75.4436 43.6971 75.4523C43.7325 75.4629 43.7683 75.4721 43.8044 75.4798C43.8135 75.4799 43.8227 75.4799 43.8319 75.4798C43.8346 75.4798 43.8374 75.4798 43.8401 75.4798C43.9297 75.4887 44.02 75.4887 44.1096 75.4798C44.1494 75.4724 44.1889 75.4632 44.2279 75.4523C44.2352 75.4524 44.2425 75.4524 44.2499 75.4523C44.2599 75.4524 44.27 75.4524 44.2801 75.4523C44.3153 75.4445 44.3501 75.4353 44.3846 75.4248C44.4275 75.4122 44.4697 75.3975 44.5111 75.3808C44.5296 75.372 44.548 75.3629 44.5661 75.3533L73.3962 63.0475C73.6997 62.9249 73.9496 62.698 74.1008 62.4077C74.252 62.1173 74.2947 61.7824 74.2211 61.4634C74.2421 61.3612 74.2513 61.2572 74.2486 61.1529V40.8834L87.1732 35.2708C87.3951 35.1743 87.5876 35.021 87.7313 34.8263C87.875 34.6317 87.9648 34.4025 87.9915 34.162C88.0183 33.9216 87.9812 33.6783 87.8838 33.4568C87.7865 33.2352 87.6324 33.0431 87.4372 32.9002L74.5841 23.5561C74.5806 23.5469 74.5769 23.5377 74.5731 23.5286C74.5695 23.5194 74.5659 23.5102 74.5621 23.5011L86.164 15.0671C86.3599 14.9243 86.5146 14.7324 86.6124 14.5105C86.7101 14.2887 86.7475 14.0448 86.7207 13.8039C86.6939 13.563 86.6039 13.3335 86.4598 13.1386C86.3156 12.9436 86.1225 12.79 85.9 12.6938L57.0644 0.170832C56.8955 0.0957618 56.7131 0.0556305 56.5282 0.0526716C56.232 0.0494902 55.9426 0.141939 55.7032 0.316518L43.4001 9.26212L31.0255 0.267005C30.7637 0.0745464 30.4423 -0.0188342 30.1181 0.00315848V0.0278311ZM30.0493 2.98402L41.28 11.1513L15.2136 22.2967L4.13142 14.2393L30.0493 2.98402ZM56.6877 3.02782L82.6029 14.2833L72.0267 21.9694L45.9631 10.824L56.6877 3.02782ZM44.0024 12.9798L69.7938 24.0097L43.9996 35.0425L35.6976 31.495L25.0362 26.9385L18.1945 24.0097L44.0024 12.9798ZM72.8324 25.7092L83.8706 33.7334L57.9554 44.9888L46.7633 36.8519L72.8324 25.7092ZM15.2741 25.7532L23.9583 29.4655L34.6197 34.0224L41.3322 36.8958L30.0493 45.1043L4.13417 33.8462L15.2741 25.7532ZM45.3773 39.2443L56.9792 47.6756C57.1722 47.8161 57.3984 47.9039 57.6356 47.9304C57.8729 47.9569 58.1129 47.9211 58.3321 47.8267L71.5015 42.107V60.8944L45.3773 72.0451V39.2443ZM42.6274 39.3517V72.0451L16.5033 60.8944V42.2197L29.6726 47.9394C29.8918 48.0338 30.1319 48.0697 30.3691 48.0432C30.6063 48.0166 30.8326 47.9289 31.0255 47.7884L42.6274 39.3517ZM56.3055 54.5833C56.3009 54.5832 56.2963 54.5832 56.2917 54.5833C56.1227 54.5922 55.9567 54.6322 55.8022 54.7014L48.4875 57.8283C48.3214 57.8994 48.1709 58.0025 48.0446 58.1318C47.9184 58.2611 47.8188 58.4142 47.7517 58.5819C47.6845 58.7497 47.6511 58.9289 47.6532 59.1096C47.6554 59.2903 47.6931 59.4688 47.7642 59.635C47.8354 59.8011 47.9385 59.9515 48.0678 60.0777C48.1971 60.204 48.35 60.3036 48.5178 60.3708C48.6856 60.4379 48.8649 60.4713 49.0456 60.4691C49.2263 60.467 49.4048 60.4292 49.5709 60.358L56.8802 57.2315C57.1847 57.1125 57.4369 56.8891 57.5915 56.6011C57.7461 56.313 57.793 55.9793 57.7238 55.6598C57.6546 55.3403 57.4738 55.0558 57.2139 54.8575C56.9539 54.6592 56.6319 54.5602 56.3055 54.5779V54.5833ZM63.6175 56.4587C63.612 56.4587 63.6065 56.4587 63.601 56.4587C63.4319 56.4677 63.266 56.5077 63.1115 56.5769L55.8022 59.7007L48.4875 62.8276C48.3136 62.8931 48.1548 62.9931 48.0207 63.1217C47.8866 63.2502 47.7799 63.4046 47.7071 63.5755C47.6343 63.7465 47.5969 63.9305 47.5972 64.1163C47.5974 64.3021 47.6354 64.4857 47.7086 64.6564C47.7819 64.8272 47.889 64.9814 48.0235 65.1096C48.158 65.2378 48.3171 65.3373 48.4911 65.4023C48.6652 65.4673 48.8506 65.4962 49.0362 65.4876C49.2218 65.4789 49.4037 65.4329 49.5709 65.352L56.8802 62.2308L64.1922 59.1042C64.4949 58.9839 64.7451 58.7598 64.8982 58.4721C65.0512 58.1845 65.0971 57.8522 65.0278 57.5339C64.9584 57.2156 64.7783 56.9322 64.5195 56.7343C64.2607 56.5364 63.9401 56.4369 63.6147 56.4534L63.6175 56.4587Z" fill="white"/>
</svg>
