<svg width="180" height="106" viewBox="0 0 180 106" fill="none" xmlns="http://www.w3.org/2000/svg">
<path fill-rule="evenodd" clip-rule="evenodd" d="M4.98579 90.4773H2.00284V92.9915H0V86.5142H4.98579V90.4773ZM2.98295 87.9631H2.00284V88.9432H2.98295V87.9631ZM10.483 92.9915H5.49716V86.4716H10.483V92.9915ZM7.5 88.0057V91.5H8.48011V88.0057H7.5ZM13.9773 92.9915V90.5199H12.9972V92.9915H10.9943V86.5142H15.9801V89.0284L15.2557 89.7528L15.9801 90.5199V92.9915H13.9773ZM13.9773 88.0057H12.9972V89.0284H13.9773V88.0057ZM21.4773 88.0057H19.9858V92.9915H17.983V88.0057H16.4915V86.4716H21.4773V88.0057ZM21.9886 93.0341V86.5142H26.9744V93.0341H24.9716V90.5199H23.9915V93.0341H21.9886ZM24.9716 88.0057H23.9489V89.0284H24.9716V88.0057ZM32.4716 92.9915H27.4432V86.5142H29.446V91.5H30.4688V90.4773H32.4716V92.9915ZM40.483 92.9915H35.4972V86.5142H37.5V91.5H38.4801V90.5199H40.483V92.9915ZM40.9943 86.5142H42.9972V92.9915H40.9943V86.5142ZM46.4915 88.9858V88.0057H45.4688V91.5H46.4915V90.5199H48.4943V92.9915H43.4659V86.5142H48.4943V88.9858H46.4915ZM50.9659 90.5199V91.5H53.9489V92.9915H48.9631V86.5142H53.9489V88.0057H50.9659V88.9858H53.9489V90.5199H50.9659ZM54.4602 86.5142H59.4886V92.9915H57.4858V88.0057H56.4631V92.9915H54.4602V86.5142ZM62.983 89.0284V88.0057H61.9602V91.5H62.983V90.5199H64.9432V93.0341H59.9574V86.5142H64.9432V89.0284H62.983ZM65.4972 86.5142H67.5V93.0341H65.4972V86.5142ZM68.0114 92.9915V86.5142H72.9972V92.9915H70.9943V90.4773H70.0142V92.9915H68.0114ZM70.9943 88.0057H69.9716V88.9858H70.9943V88.0057ZM78.4943 88.0057H76.9602V92.9915H75V88.0057H73.4659V86.5142H78.4943V88.0057ZM83.9915 92.9915H78.9631V86.5142H80.9659V91.5H81.9886V86.5142H83.9915V92.9915ZM87.4858 92.9915V90.4773H86.4631V92.9915H84.4602V86.4716H89.446V88.9858L88.7216 89.7528L89.446 90.4773V92.9915H87.4858ZM87.4858 88.0057H86.5057V88.9858H87.4858V88.0057ZM90 92.9915V86.5142H94.9858V92.9915H92.983V90.5199H92.0028V92.9915H90ZM92.983 88.0057H92.0028V89.0284H92.983V88.0057ZM100.014 90.4773V91.5H103.04V92.9915H98.0114V86.4716H103.04V88.0057H100.014V88.9858H103.04V90.4773H100.014ZM106.491 88.0057H105.469V92.9915H103.509V86.4716H111.477V92.9915H109.474V88.0057H108.494V92.9915H106.491V88.0057ZM117.528 88.0057H116.506V92.9915H114.503V86.5142H122.514V92.9915H120.511V88.0057H119.531V92.9915H117.528V88.0057ZM123.026 92.9915V86.5142H128.011V92.9915H126.009V90.4773H124.986V92.9915H123.026ZM126.051 88.0057H125.028V88.9858H126.051V88.0057ZM133.551 88.0057H132.017V93.0341H130.014V88.0057H128.523V86.5142H133.551V88.0057ZM136.023 90.5199V91.5H139.006V92.9915H134.02V86.5142H139.006V88.0057H136.023V89.0284H139.006V90.5199H136.023ZM142.543 88.0057H141.52V92.9915H139.517V86.5142H147.528V92.9915H145.526V88.0057H144.545V92.9915H142.543V88.0057ZM148.04 93.0341V86.5142H153.026V93.0341H151.023V90.5199H150.043V93.0341H148.04ZM151.023 88.0057H150V89.0284H151.023V88.0057ZM152.173 84L151.662 86.0028H149.702L150.17 84H152.173ZM158.523 88.0057H157.031V92.9915H155.028V88.0057H153.537V86.5142H158.523V88.0057ZM158.991 86.4716H160.994V92.9915H158.991V86.4716ZM164.489 88.9432V87.9631H163.509V91.4574H164.489V90.4773H166.491V92.9489H161.506V86.4716H166.491V88.9432H164.489ZM167.003 92.9489V86.4716H171.989V92.9489H169.986V90.4773H169.006V92.9489H167.003ZM169.986 87.9631H169.006V88.9432H169.986V87.9631ZM180 89.4972V90.9886H175.014V89.4972H180ZM23.5653 101.344V100.321H22.5426V103.815H23.5653V102.835H25.5682V105.349H20.5824V98.8296H25.5682V101.344H23.5653ZM26.0369 105.349V98.8296H31.0653V105.349H29.0625V102.835H28.0398V105.349H26.0369ZM29.0625 100.321H28.0398V101.344H29.0625V100.321ZM34.517 100.321H33.5369V105.307H31.5341V98.8296H39.5455V105.307H37.5426V100.321H36.5199V105.307H34.517V100.321ZM45.0426 102.835H42.017V105.307H40.0142V98.8296H45.0426V102.835ZM43.0398 100.321H42.017V101.344H43.0398V100.321ZM50.4972 105.307H45.5114V98.8296H47.5142V103.815H48.5369V98.8296H50.4972V105.307ZM54.0341 100.79V100.278H53.0114V101.301H55.9943V105.307H51.0085V103.304H53.0114V103.773H54.0341V102.793H51.0085V98.7869H55.9943V100.79H54.0341ZM62.0881 100.79V100.278H61.0653V101.301H64.0909V105.307H59.1051V103.304H61.0653V103.773H62.0881V102.793H59.1051V98.7869H64.0909V100.79H62.0881ZM64.5597 105.307V98.7869H69.5455V105.307H67.5852V102.793H66.5625V105.307H64.5597ZM67.5426 100.278H66.5625V101.301H67.5426V100.278ZM66.8182 98.2756L66.5625 97.7642L66.3068 98.2756H65.2841L65.7955 97.2955H67.2869L67.5426 97.7642L67.7983 97.2955H68.7784L68.3097 98.2756H66.8182ZM75.0426 105.264H70.0568V98.7869H75.0426V105.264ZM72.0597 100.236V103.773H73.0824V100.236H72.0597ZM83.054 105.264H78.0682V102.75H80.071V103.773H81.0511V98.7443H83.054V105.264ZM88.5511 105.264H83.5653V98.7869H88.5511V105.264ZM85.5682 100.278V103.773H86.5483V100.278H85.5682ZM89.0625 105.264V98.7869H94.0909V105.264H92.0881V102.75H91.0653V105.264H89.0625ZM92.0881 100.278H91.0653V101.259H92.0881V100.278ZM91.321 98.2756L91.0653 97.8068L90.8097 98.2756H89.7869L90.2983 97.2955H91.7898L92.0455 97.8068L92.3011 97.2955H93.3239L92.8125 98.2756H91.321ZM99.5455 105.264H94.5597V98.7869H99.5455V105.264ZM96.5625 100.278V103.773H97.5852V100.278H96.5625ZM104.574 102.75V103.773H107.557V105.264H102.571V98.7869H107.557V100.278H104.574V101.259H107.557V102.75H104.574ZM110.582 105.776L108.068 103.261V98.7869H110.071V102.75L110.582 103.261L111.094 102.75V98.7869H113.097V103.261L110.582 105.776ZM113.565 105.264V98.7869H118.551V105.264H116.548V102.793H115.568V105.264H113.565ZM116.548 100.278H115.568V101.301H116.548V100.278ZM119.062 98.7869H124.048V105.264H122.045V100.278H121.065V105.264H119.062V98.7869ZM124.56 98.7869H129.545V100.278H126.52V103.773H127.543V102.793H127.031V101.301H129.545V105.264H124.56V98.7869ZM132.017 102.793V103.773H135.043V105.307H130.014V98.7869H135.043V100.278H132.017V101.301H135.043V102.793H132.017ZM140.497 105.307H135.511V98.7869H137.514V103.773H138.494V102.793H140.497V105.307ZM141.009 98.8296H142.969V105.307H141.009V98.8296ZM146.506 100.832V100.321H145.483V101.344H148.466V105.307H143.48V103.304H145.483V103.815H146.506V102.835H143.48V98.8296H148.466V100.832H146.506ZM154.006 100.321H152.514V105.307H150.511V100.321H149.02V98.8296H154.006V100.321ZM154.517 105.307V98.8296H159.503V105.307H157.5V102.835H156.52V105.307H154.517ZM157.5 100.321H156.52V101.301H157.5V100.321Z" fill="white"/>
<path d="M76.1199 72.9513H20V0H42.4572V56.1199H53.6627V44.9144H76.1199V72.9513Z" fill="#DF444E"/>
<path d="M110.843 23.518H100.975V72.6748H81.3308V8.76172H160V72.6748H140.31V23.518H130.488V72.6748H110.843V23.518Z" fill="#DF444E"/>
<rect x="60.9043" y="10.8213" width="7.57488" height="22.7246" fill="#688965"/>
<rect x="53.3293" y="26.5117" width="7.57488" height="22.7246" transform="rotate(-90 53.3293 26.5117)" fill="#688965"/>
</svg>
